<?xml version="1.0" encoding="UTF-8"?>
<svg xmlns="http://www.w3.org/2000/svg" xmlns:xlink="http://www.w3.org/1999/xlink" viewBox="0 0 900 900">
  <defs>
    <style>
      .cls-1 {
        fill: #244981;
      }

      .cls-2 {
        fill: #6089c5;
      }

      .cls-3 {
        fill: #6d92d0;
      }

      .cls-4 {
        fill: #0b224e;
      }

      .cls-5 {
        fill: #6d8fca;
      }

      .cls-6 {
        fill: #618bd0;
      }

      .cls-7 {
        fill: #00b1ff;
        filter: url(#blur-6);
        opacity: .6;
      }

      .cls-8 {
        fill: #5a81c5;
      }

      .cls-9 {
        fill: #6c91d4;
      }

      .cls-10 {
        fill: #1e4378;
      }

      .cls-11 {
        fill: #225292;
      }

      .cls-12 {
        fill: #1b3e73;
      }

      .cls-13 {
        fill: #1e4277;
      }

      .cls-14 {
        fill: #d2dff0;
      }

      .cls-15 {
        fill: #264c83;
      }

      .cls-16 {
        fill: #4470b5;
      }

      .cls-17 {
        fill: #7096d2;
      }

      .cls-18 {
        fill: #cbdaef;
      }

      .cls-19 {
        fill: #274f8b;
      }

      .cls-20 {
        fill: #668dcc;
      }

      .cls-21 {
        fill: #3c65a0;
      }

      .cls-22 {
        fill: #22477f;
      }

      .cls-23 {
        fill: #fefefe;
      }

      .cls-24 {
        fill: #1d3e71;
      }
    </style>
    <filter id="blur-6">
      <feGaussianBlur stdDeviation="6"/>
    </filter>
  </defs>
  <g>
    <g>
      <path class="cls-4" d="M878.79,233.23v-31.16c0-.14-.12-5.95-5.49-10.09-5.37-4.14-12.17-4.69-12.25-4.67l-163.53-22.36s-7.7-.77-13.54-.68c-5.84.09-12.31,1.1-12.31,1.1l-407.44,65.63s-6.51.86-9.86,4.66c-3.35,3.8-2.88,10.99-2.88,10.99v26.05c-32.39,8.86-62.96,15.83-99.89,23.28-40.73,8.22-119.97,20.32-119.97,20.32,0,0-8.54,1.62-10.09,6.64-1.54,5.02,2.3,11.02,2.3,11.02,0,0,40.8,62.38,151.83,94.58,69.61,20.19,130.18,22.83,158.02,21.99h-.15s15.17,0,15.17,0c.23,7.05-.35,29.17-15.39,41.27-21.69,17.44-63.11,28.83-63.11,28.83,0,0-4.05.7-6.1,4.54-2.05,3.84-1.5,7.98-1.5,7.98l-42.26,11.18s-3.98.97-5.93,3.69-1.9,6.48-1.9,6.48v57.58c.03.98.25,3.21,1.81,5.6,1.55,2.37,3.56,3.59,4.45,4.02l55.34,26.83c1.76.66,4.37,1.41,7.6,1.57,2.9.14,5.32-.25,7.04-.67l22.25-3.91,38.68,19.9v21.02c0,1.14.12,4.57,2.09,7.29s5.12,4.37,6.18,4.79l73.12,34.88s5.77,2.38,10.9,2.35c5.63-.04,12.46-2.91,12.46-2.91l61.67-25.74s3.47-1.68,5.43-4.92,1.66-9.22,1.66-9.22v-28.57c16.19-10.18,29.63-22.98,77.2-30.83,48.7-8.04,109.88,8.02,109.88,8.02,0,0,6.34,1.8,11.26,1.55,4.92-.25,9.98-2.33,9.98-2.33l44.07-18.34s3.98-1.24,6.52-4.74c2.39-3.28,2.25-8.51,2.25-8.51v-52.83s.34-4.56-2.53-7.95c-3.07-3.63-10.94-6.53-10.94-6.53,0,0-108.28-36.92-113.12-85.14-8.16-63.8,89.93-122.13,89.93-122.13.03-.02,120.01-77.27,121.38-78.29,1.37-1.02,5.09-4.22,7.28-9.22s2.54-11.26,2.41-13.89Z"/>
    </g>
    <g>
      <path class="cls-12" d="M769.62,606.66v-46.4s-.13-1.53-.64-2.17c-5.41,1.97-49.47,17.34-53.81,18.89v50.34c1.73.42,4.22.87,5.86.84,1.51-.08,3.9-.78,5.08-1.24l41.83-17.4s.82-.34,1.28-.99c.46-.66.4-1.86.4-1.86Z"/>
    </g>
    <g>
      <path class="cls-11" d="M505.32,695.35s1.67-.7,2.35-1.75.57-3.03.57-3.03v-34.48s-.01,0-.01,0v-14.25c0-.79-.09-1.58-.24-2.35l-66.09,21.02v60.23c1.52-.01,4.82-.94,6.8-1.75l56.63-23.64Z"/>
      <path class="cls-24" d="M441.89,720.73v-60.23l-76.71-36.6c-.3.54-.47,1.16-.47,1.81v55.49s-.1,2.34.64,3.48c.75,1.14,2.36,1.85,2.36,1.85l69.35,33.08c1.49.55,3.74,1.12,4.82,1.12h.01Z"/>
      <path class="cls-2" d="M507.99,639.48c.08.38.13.76.17,1.15-.11-1.05-.35-2.09-.73-3.08l-7.38-19.33-43.66,15.42-59.74-28.5s-3.71,4.55-9.67,8.25-20,8.88-20,8.88c-.78.34-1.39.94-1.78,1.66l76.7,36.59,66.09-21.02Z"/>
      <path class="cls-3" d="M366.52,622.49c-1.11.68-1.81,1.89-1.81,3.21v55.49s-.03.8.09,1.68c.04-.64,3.27-43.8,3.49-45.08.22-1.29.48-2.38,1.47-3.37s2.18-1.39,3.45-1.55c1.27-.16,3.62.5,3.62.5v-5.07l-10.31-5.83Z"/>
      <path class="cls-23" d="M442.72,720.66c.15-.02.3-.04.47-.07.1-.02.21-.04.31-.06.14-.03.29-.06.45-.09.13-.03.26-.06.39-.09.11-.03.22-.05.33-.08.65-.16,1.33-.35,1.99-.56,0,0,0,0,.01,0,.25-.08.49-.16.73-.24,0,0,0,0,0,0v-51.52c0-1.08.11-2.42,1.19-3.84s2.38-1.9,3.65-2.42,52.68-17.49,54.35-18.27,1.65-1.59,1.65-1.59c0-1.47-.27-2.92-.79-4.29l-7.23-18.92s2.47,10.99,2.73,12.74.51,3.31.13,4.62-1.06,1.89-1.94,2.31-51.81,16.18-53.07,16.55-3.14.75-4.56.75-3.72-.4-4.82-.81-58.32-27.42-58.82-27.68-2.15-1.02-2.7-2.1c-.55-1.08-.23-1.76.38-2.45s4.1-2.27,9.81-6.82c5.7-4.55,9.31-10.59,9.31-10.59,0,0-3.71,4.55-9.67,8.25s-20,8.88-20,8.88c-1.38.6-2.27,1.95-2.27,3.46v.37c.03.22.11.53.34.86.38.55.75.87,1.4,1.22.65.35,65.64,33.03,66.85,33.9s2.1,2.04,2.68,3.04.97,2.36.97,3.81v50.64l.11.05c1.49.55,3.74,1.12,4.82,1.12h.01c.17,0,.38-.02.59-.04.07,0,.15-.02.23-.03Z"/>
      <path class="cls-17" d="M445.85,663.8s-1.64.76-2.37,1.68-1.14,2.48-1.36,3.56-5.05,50.57-5.05,50.57c1.49.55,3.74,1.12,4.82,1.12h.01c.17,0,.38-.02.59-.04.07,0,.15-.02.23-.03.15-.02.3-.04.47-.07.1-.02.21-.04.31-.06.14-.03.29-.06.45-.09.13-.03.26-.06.39-.09.11-.03.22-.05.33-.08.65-.16,1.33-.35,1.99-.56,0,0,0,0,.01,0,.25-.08.49-.16.73-.24,0,0,0,0,0,0v-51.52c0-1.08.11-2.42,1.19-3.84,1.08-1.41,2.38-1.9,3.65-2.42.15-.06,1.04-.37,2.47-.85l-8.86,2.96Z"/>
    </g>
    <g>
      <path class="cls-11" d="M282.54,582.44s10.22-2.79,19.15-7.87c8.93-5.08,11.71-9.15,11.71-9.15v64.45l-30.86,5.44v-52.87Z"/>
      <path class="cls-10" d="M282.54,635.3v-52.87l-54.37-23.95c-.5.8-.64,1.84-.64,1.84v45.97s-.16,1.73.48,2.65c.64.92,2.01,1.52,2.01,1.52l49.89,24.19s1.68.64,2.63.64Z"/>
      <path class="cls-2" d="M301.69,574.57c8.93-5.08,11.71-9.15,11.71-9.15l-41.03-19.57-42.52,11.48s-1.18.37-1.68,1.17l54.37,23.95s10.22-2.79,19.15-7.87Z"/>
      <path class="cls-23" d="M299.86,572.46c-5.23,2-10.73,3.23-12.79,3.65s-2.85.53-4.52.43-3.48-1.03-4.66-1.53-34.73-14.72-35.6-15.29-1.48-.96-1.4-1.9.95-1.31,1.84-1.62l29.64-10.35-42.52,11.48s-1.18.37-1.68,1.17c0,0,46.08,20.2,46.82,20.62s2.23,1.37,2.8,3.32.52,3.81.52,4.91v46.54l1.59.77s1.68.64,2.63.64,2.87-.4,2.87-.4l1.52-.27v-.11s.01-49.73.01-50.53-.04-1.3.47-2.24,1.63-1.45,1.63-1.45c0,0-1.11.58,0,0s8.3-3.26,12.65-5.74c8.93-5.08,11.71-9.15,11.71-9.15,0,0-8.31,5.04-13.54,7.05Z"/>
      <path class="cls-6" d="M282.54,635.3c.95,0,2.87-.4,2.87-.4l1.52-.27v-.11s.01-49.73.01-50.53-.04-1.3.47-2.24c.38-.7,1.1-1.16,1.44-1.35-.23.12-.52.27,0,0,.11-.06.17-.09.18-.09,0,0,0,0,0,0,.04-.02.1-.05.15-.07-1.26.53-2.33.98-2.67,1.12-.99.42-3.06,1.27-4.12,3.37-1.06,2.1-1.42,5.11-1.54,6.51s-2.55,42.65-2.55,42.65l1.59.77s1.68.64,2.63.64Z"/>
      <path class="cls-19" d="M245.16,590.57c-.14-4.08-2.5-19.18-6.41-22.53-3.91-3.35-8.37-5.64-11.22-6.91v45.18s-.16,1.73.48,2.65c.64.92,2.01,1.52,2.01,1.52l16.1,7.81c-.28-8.14-.85-24.66-.96-27.7Z"/>
    </g>
    <g>
      <path class="cls-22" d="M323.4,635.01l31.31,16.11v-25.41c0-5.5,3.26-10.45,8.3-12.63l.25-.11.26-.09c5.07-1.87,14.48-5.69,18.18-7.99,2.32-1.44,4.21-3.07,5.47-4.28l-63.77-30.42v64.82Z"/>
      <path class="cls-5" d="M323.4,570.19v64.82l7.35,3.78s-2.06-3.44-2.97-7.25-4.38-61.36-4.38-61.36Z"/>
    </g>
    <g>
      <path class="cls-15" d="M768.98,558.09l-.02-.03c-.51-.67-1.93-1.38-1.93-1.38-28.89-11.3-111.06-43.38-122.84-91.33l-169.97,60.02-113.12-53.97c-1.83,8.25-4.87,16.18-9.8,23.09-15.51,21.03-57.28,34.57-69.79,38.47,0,0-.25.08-.64.25,0,0,0,0,0,0l176.49,84.2,49.86-17.61c5.67-7.43,30.98-53.15,88.14-56.39,57.15-3.23,98.89,18.01,109.77,24.1,10.88,6.09,10.03,9.45,10.03,9.45l53.81-18.89Z"/>
      <path class="cls-21" d="M767.03,556.68c-18.52-7.24-58.91-23.01-88.63-46.03-28.28-2.44-73.96-6.04-113.72,7.38-39.76,13.42-96.52,60.75-101.29,62.61-4.77,1.86-5.96,2.83-9.09,1.71-3.13-1.12-49.23-31.51-74.12-40.97-24.89-9.45-58.68-11.95-77.79-15.71-8.9,3.5-16.6,5.96-20.87,7.3,0,0-.25.08-.64.25,0,0,0,0,0,0l176.49,84.2,49.86-17.61c5.67-7.43,30.98-53.15,88.14-56.39,57.15-3.23,98.89,18.01,109.77,24.1,10.88,6.09,10.03,9.45,10.03,9.45l53.81-18.89-.02-.03c-.51-.67-1.93-1.38-1.93-1.38Z"/>
      <path class="cls-23" d="M768.96,558.06c-.51-.67-1.92-1.37-1.92-1.37-20.78-8.12-69.1-27-98.99-54.79,8.85,8.62,25.71,24.25,39.08,31.94,19.02,10.94,38.48,20.05,39.64,20.81,3.19,2.02,1.65,3.75-1.36,4.71-1.41.51-17.79,5.34-20.18,5.79-2.39.45-4,.94-6.63.67s-4.85-1.5-6.34-2.23c-1.49-.73-46.59-30.66-115.24-26.86-68.65,3.8-93.94,54.11-93.94,54.11,0,0-35.96,10.06-37.09,10.06-3.4.14-2.4-3.29-2.4-3.29,0,0,6.69-26.26,9.3-44.82,1.49-8.85,1.78-18.26,1.33-27.4l-9.22-4.4c-1.9,23.88-8.05,48.53-21.55,74.73-.81,1.31-2.16,2.68-4.47,3.13s-4.95-.13-5.99-.45c-1.03-.32-123.85-52.11-126.19-53.31-2.34-1.2-4.66-2.31-5.27-3.46-2.12-3.77,3.25-6.61,4.88-7.58h0c26.7-13.8,55.43-36.46,55.46-67.09-2.18,12.78-7.27,27.05-19.14,36.55-20.09,16.16-61.57,29.57-61.97,29.73l176.6,84.2,49.86-17.61c5.67-7.43,30.98-53.15,88.14-56.39,57.15-3.23,98.89,18.01,109.77,24.1,8.71,4.88,9.9,8,10.03,9.05v50.74c1.73.42,4.22.87,5.86.84.75-.04,1.7-.23,2.63-.47v-46.18c0,1.75-.11-2.05.52-4.77.69-2.56,1.79-3.3,3.04-3.99,1.25-.69,41.77-14.66,41.77-14.66l-.02-.04ZM443.71,595.31c.07-.09.13-.17.14-.2-.01.02-.06.08-.14.2Z"/>
      <path class="cls-9" d="M719.7,577.4c-.84,2.27-4.53,40.02-4.53,40.02v9.9c1.73.42,4.22.87,5.86.84.75-.04,1.7-.23,2.63-.47v-46.18c0,1.75-.11-2.05.52-4.77.69-2.56,1.79-3.3,3.04-3.99.27-.15,2.45-.95,5.68-2.09-.03,0-8.32,2.87-9.23,3.3-.92.43-3.12,1.17-3.96,3.44Z"/>
      <path class="cls-16" d="M474.21,525.37c-1.11-22.48-6.7-43.36-10.05-50.33,1.51,15.13,2.07,30.37.82,45.93l9.22,4.4Z"/>
    </g>
    <g>
      <path class="cls-13" d="M488.62,289.03l-.02,147.17c0,1.94,1.89,3.31,3.73,2.71l166.72-54.21c7.38-2.4,14.04-6.63,19.26-12.38,26.18-28.83,57.69-48.17,61.51-50.46,10.45-6.73,119.76-77.23,119.76-77.23,0,0,1.96-1.3,3.12-3.44,1.19-2.2,1.12-4.63,1.12-4.63l-.02-30.68s.1-1.28-.62-2.3l-375.66,77.04c.96,3.13,1.12,6.41,1.1,8.41Z"/>
      <path class="cls-2" d="M863.17,203.59c-.72-1.02-2.41-1.17-2.41-1.17l-164.98-22.56s-6.02-.59-10.79-.59-10.93.92-10.93.92h0l-327.32,52.72,129.06,36.68c1.53.42,7.07,2.29,10.25,7.64.63,1.06,1.11,2.22,1.47,3.4l375.66-77.04Z"/>
      <path class="cls-14" d="M479.12,261.65s5.64-.13,9.89-.95,88.5-23.98,88.5-23.98c0,0-33.18,19.88-33.99,20.58s-1.42,1.37-1.39,2.21.99,1.4,1.93,1.69,5.73.72,5.73.72l-14.46,5.52-42.93,5.66-19.53-9.95,6.26-1.51Z"/>
      <path class="cls-23" d="M863.8,222.49l-370.6,99.14c-.42.11-.82-.22-.8-.65.76-17.49,1.22-29.78,1.25-30.28.07-1.46.11-2.81.5-4.4.39-1.58.99-2.49,1.81-3.65.82-1.16,3.91-3.99,9.74-5.76.01,0,.02,0,.04-.01-.02,0-.04.01-.04.01l357.46-73.31c-.72-1.02-2.41-1.17-2.41-1.17l-4.68-.64s-311.31,59.59-319.72,60.83c-8.42,1.24-19.6,3.28-30.41,2.91s-14.73-1.49-22.89-3.58-84.12-21.54-85.75-22.51c-1.63-.97-3.16-2.76-2.15-4.99,1.01-2.24,4.62-3.2,6.9-3.8,2.27-.6,293.55-50.79,293.55-50.79-.99-.09-6.31-.57-10.61-.57-4.76,0-10.93.92-10.93.92h0l-327.32,52.72,129.06,36.68c1.47.4,6.58,2.13,9.81,6.96.15.22.3.44.44.68.15.26.3.52.43.79.03.05.05.11.08.16.11.22.22.45.31.68.02.04.03.08.05.12.11.25.21.5.3.76,0,.02.01.03.02.05.1.28.2.56.28.85.96,3.13,1.12,6.41,1.1,8.41l-.02,117.05,2.12-42.47s1.11-21.09,5.92-28.12,35.25-17.14,41.37-19.23c6.11-2.09,325.8-91.48,325.8-91.48v-2.3ZM508.17,276.15c-.1.03-.26.08-.45.14.21-.06.36-.11.45-.14ZM508.28,276.11s.02,0,0,0h0ZM505.82,276.86s.06-.02.09-.03c-.03.01-.06.02-.09.03ZM505.98,276.81c.12-.04.23-.07.34-.1-.13.04-.24.07-.34.1ZM506.45,276.67s.08-.02.12-.04c-.04.01-.08.02-.12.04ZM506.85,276.55c.06-.02.12-.04.17-.05-.06.02-.12.04-.17.05ZM507.11,276.47c.12-.04.22-.07.32-.1-.1.03-.21.06-.32.1Z"/>
    </g>
    <g>
      <path class="cls-13" d="M478.62,438.97v-150.04s.04-4.13-1-6.28l-50.74,10.41c1.54,1.92,2.44,4.35,2.44,6.94v156.21c-.54-.15,1.83.57,3.2.77,2.66.38,4.47-.2,4.47-.2l38.72-12.58s1.4-.43,2.25-1.77c.72-1.13.65-3.45.65-3.45Z"/>
      <path class="cls-2" d="M426.88,293.06l50.74-10.41c-.05-.11-.11-.22-.17-.32-1.37-2.3-4.39-3.13-4.39-3.13l-147.74-41.99s-1.4-.35-2.31-.49l-53.26,8.58,151.55,44.01c2.26.66,4.18,1.99,5.58,3.74,0,0,0,0,0,0Z"/>
      <path class="cls-1" d="M267.31,246.67c-.8,1.19-.83,2.91-.83,2.91v19.61c7.16-1.76,12-2.96,13.32-3.29,2.31-.69,6.33-1.7,9.99-1.7s8.31,1.16,10.62,1.85l.26.08,97.12,32.79.16.06c3.1,1.12,13.54,5.52,17.78,14.92,3.04,6.74,3.15,14.73,3.09,17.41v89.38c-.02,2.41-.54,10.8-6.58,17.49-5.54,6.14-12.27,7.52-15.48,7.83-.27.04-.66.09-1.15.15l32.47,9.69s.52.17,1.24.37v-156.21c0-4.95-3.27-9.3-8.02-10.68l-151.55-44.01s-1.64.17-2.44,1.37Z"/>
      <path class="cls-23" d="M478.62,438.97v-.39s-32.14,9.9-33.74,10.29-4.55,1.26-6.56-.82c-2.01-2.08-1.65-8.36-1.64-6.48s-.05-142.58,0-143.4c.05-.82.07-3.07,1.04-4.62s1.08-1.63,2.31-2.34c1.23-.71,37.58-8.54,37.58-8.54-.05-.11-.11-.22-.17-.32-1.37-2.3-4.39-3.13-4.39-3.13l-9.09-2.58s-26.18,4.19-27.14,4.32c-.96.13-3.42.34-4.89.24-1.47-.09-3.37-.55-4.43-.84-1.05-.29-120.81-32.82-121.29-32.96s-2.66-.81-2.52-1.76c.13-.95,1.51-1.41,2.86-1.71s23.88-5.25,23.88-5.25h0s-7.43-1.94-7.43-1.94l-53.26,8.58,151.55,44.01c2.26.66,4.18,1.99,5.58,3.74h0c1.54,1.92,2.44,4.35,2.44,6.94v137.32c0,1.98.08,6.37-2.01,8.83s-4.89,1.79-7.27,1.31-15.11-3.78-15.11-3.78c-2.85,1.21-6.53,2.16-8.17,2.31-.27.04-.66.09-1.15.15l32.47,9.69s1.45.46,2.84.81c.02,0,.04.01.07.02.26.06.51.12.75.17.02,0,.05,0,.07.01.26.05.5.1.71.13.3.04.58.07.86.09.26.02.51.03.74.03h0c1.75.03,2.87-.33,2.87-.33l38.72-12.58s1.4-.43,2.25-1.77c.72-1.13.65-3.45.65-3.45Z"/>
      <path class="cls-20" d="M430.92,456.65s.04.01.07.02c.26.06.51.12.75.17.02,0,.05,0,.07.01.26.05.5.1.71.13.3.04.58.07.86.09.26.02.51.03.74.03h0c1.75.03,2.87-.33,2.87-.33l38.72-12.58s1.4-.43,2.25-1.77c.72-1.13.65-3.45.65-3.45v-.39s-32.14,9.9-33.74,10.29-4.55,1.26-6.56-.82c-2.01-2.08-1.65-8.36-1.64-6.48,0,.47,0-8.13,0-21.32l-3.92-83.18-3.44,100.26c0,1.98.08,6.37-2.01,8.83-2.09,2.46-4.89,1.79-7.27,1.31s-15.11-3.78-15.11-3.78c-2.85,1.21-6.53,2.16-8.17,2.31-.27.04-.66.09-1.15.15l32.47,9.69s1.45.46,2.84.81Z"/>
    </g>
    <g>
      <path class="cls-2" d="M392.83,313.07l-96.7-32.65s-4.11-1.22-6.34-1.22-6.01,1.16-6.01,1.16c0,0-89.33,22.28-129.21,30.32-32.69,6.59-88.82,15.49-111.18,18.97-1.33.21-2.07.45-2.33,1.02-.27.57.06,1.21.88,2.17,13.93,16.4,55.35,57.34,137.91,81.29,66.98,19.43,123.34,21.53,144.46,21.53,2.21,0,23.68-.17,38.59-1.17,14.91-1.01,32.25-3.42,32.25-3.42,0,0,3.36-.09,5.95-2.96,2.68-2.97,2.71-7.54,2.71-7.54v-89.47s.2-6.69-1.76-11.05-9.22-6.99-9.22-6.99Z"/>
      <path class="cls-13" d="M41.94,332.85c13.93,16.4,55.35,57.34,137.91,81.29,66.98,19.43,123.34,21.53,144.46,21.53,2.21,0,23.68-.17,38.59-1.17,14.91-1.01,32.25-3.42,32.25-3.42,0,0,3.36-.09,5.95-2.96,2.68-2.97,2.71-7.54,2.71-7.54v-89.47s.2-6.69-1.76-11.05c0,0-71.92,29.18-160.76,32.31-88.84,3.13-200.23-21.69-200.23-21.69-.27.57.06,1.21.88,2.17Z"/>
      <path class="cls-8" d="M41.94,332.85c13.93,16.4,55.35,57.34,137.91,81.29,66.98,19.43,123.34,21.53,144.46,21.53,2.21,0,23.68-.17,38.59-1.17,4.1-.28,8.38-.66,12.44-1.07h0s-110.58,2.62-199.88-25.26c-89.29-27.88-134.41-77.49-134.41-77.49-.27.57.06,1.21.88,2.17Z"/>
      <path class="cls-18" d="M273.98,331.59s-2.44-.31-3.39-.61-1.99-.89-1.99-.89c-.99-.78-.82-2.32.31-2.87l53.68-26.24s-69.83,17.37-114.44,22.66-123.85,2.89-123.85,2.89l-7.53,2.77,185.44,10.58,11.18-4.02.57-4.28Z"/>
      <path class="cls-23" d="M241.29,352.37c88.84-3.13,160.76-32.31,160.76-32.31-1.97-4.36-9.22-6.99-9.22-6.99l-12.07-4.08c-31.09,7.77-60.89,19.87-134.66,25.09-73.76,5.21-148.43-5.07-172.31-9.25-12.38,2-23.16,3.7-30.4,4.82-1.33.21-2.07.45-2.33,1.02,0,0,111.38,24.83,200.23,21.69Z"/>
    </g>
    <g>
      <g>
        <path class="cls-7" d="M577.01,626.35c-4.08,0-7.51-3.07-7.95-7.14-1.6-14.9-1.69-16.36-1.72-16.83-.12-2.12.6-4.2,2.02-5.79,2.48-2.78,6.19-6.48,9.78-10.07,2.99-2.98,7.08-7.07,7.92-8.19.53-.77,2.95-4.26,3.25-4.69-1.74-3.3-3.92-7.44-5.77-10.94-1.83-3.48-3.33-6.31-3.73-7.08-.05-.1-.1-.2-.14-.29-.97-2.08-.93-3.81-.91-4.54,0-.12,0-.25,0-.37,0,0-.07-6.96-.08-7.82l-12.58-4.36c-.59-.21-1.06-.37-1.44-.5-1.19-.41-1.91-.65-2.78-1.18-.19-.11-.37-.23-.54-.36-2.82-2.05-4-5.55-3-8.92.08-.26.17-.51.27-.76.33-.81,2.11-5.27,4.15-10.38,2.45-6.13,5.27-13.22,6.48-16.21.01-.04.03-.07.04-.1,1.18-3.09,3.5-4.96,6.89-5.58l.39-.07c2.39-.44,4.94-.93,7.49-1.41,1.76-.33,3.52-.66,5.19-.98,1.12-1.15,2.29-2.34,3.45-3.54,1.98-2.02,3.97-4.05,5.79-5.95,1.66-2.32,7.09-9.93,9.61-13.47.2-1.93.44-4.5.69-7.07.57-5.91.92-9.6,1.12-10.89.17-1.09.56-2.14,1.15-3.08.68-1.07,1.62-2,2.71-2.64.44-.26,1.26-.74,11.16-5.64q11.08-5.48,12.99-5.48c3.72,0,6.95,2.56,7.79,6.19.66,2.84-.28,6.7-3.83,8.76-1,.63-12.44,7.79-14.19,8.88-.15,1.91-.32,4.18-.5,6.45-.22,2.88-.44,5.77-.61,7.94l-.02.21c-.15,2.09-.64,3.49-1.83,5.17,0,0-.34.49-.4.57-1.27,1.74-2.8,4.01-4.42,6.41-3.92,5.81-6.47,9.51-8.58,11.63-1.14,1.18-2.76,2.87-4.4,4.58-3.89,4.07-5.81,6.07-6.6,6.82-.9.85-1.99,1.48-3.18,1.83-2.27.68-5.94,1.6-9.17,2.42-.6.15-1.19.3-1.75.44-1.05,2.69-2.46,6.29-3.72,9.51l11.73,3.86c4.08,1.29,6.35,4.64,6.09,8.97l-.02.31c-.1,2.12-.22,4.33-.34,6.56-.14,2.53-.28,5.12-.38,7.53.94,1.81,2.48,4.73,3.8,7.23,1.68,3.19,3.5,6.64,4.93,9.38l1.18,2.25c.56,1.07.96,1.83,1.11,2.13.8,1.59,2.07,5.39-1.29,9.45l-.51.63c-1.23,1.49-3.27,3.99-5.15,6.29-1.87,2.3-3.58,4.39-4.16,5.09-.15.18-.31.35-.48.52-2.51,2.52-6.02,5.97-9.42,9.31-1.75,1.71-3.46,3.4-5,4.91-.05.96-.1,2.09-.15,3.26-.34,7.15-.43,8.99-.45,9.35-.29,4.13-3.69,7.36-7.83,7.44-.05,0-.1,0-.15,0ZM580.3,530.03"/>
        <path class="cls-23" d="M618.83,452.07c1.68-.99,21.77-10.84,19.98-9.96-1.37.86-15.56,9.73-17.46,10.93-.51.14-.36,1.42-.47,2.04-.33,4.13-.92,11.97-1.28,16.56-.09,1.14,0,.79-.73,1.88-3.78,5.2-9.55,14.47-12.23,17.13-3.05,3.15-9.61,10.09-10.78,11.18-3.33,1-10.37,2.67-13.48,3.51-1.29.34-1.04.17-1.43,1.14-1.65,4.21-7.27,18.56-7.87,20.12-.2.43,1.24.56,2.75,1.15,4.91,1.62,10.64,3.5,15.64,5.15.36.12.68.22,1.01.33,1.06.37.9.11.85,1.46-.23,5.16-.65,11.16-.8,16.16.75,1.62,6.33,12.06,9.69,18.53,1.15,2.2,2.01,3.82,2.25,4.3.15.29-.01.36-.65,1.17l-.21.25c-2.39,2.9-8.1,9.93-9.26,11.32-4.27,4.29-11.55,11.37-16.1,15.89-.39.39-.51.47-.51.98-.11,2.16-.68,14.46-.72,15.06-.41-3.8-1.59-14.78-1.68-16.44,5.05-5.66,16.49-16.35,18.29-19.01,1.46-2.11,5.24-7.54,5.82-8.42.1-.16.16-.28.1-.45-2.73-5.26-10.64-20.18-11.63-22.08-.26-.56-.11-.76-.16-1.61-.04-3.16-.11-11.75-.14-13.09-.02-.18-.02-.31-.18-.4-.47-.2-.89-.31-1.54-.55-3.5-1.21-11.88-4.11-16.19-5.6-1.51-.53-2.49-.84-2.67-.95-.07-.05-.07-.1-.04-.19.73-1.79,8.43-21.13,10.64-26.62.33-.8.07-.62,1.46-.9,4.35-.81,9.59-1.81,14.05-2.64,1.23-.23.92-.09,1.9-1.07,3.39-3.5,7.3-7.44,10.59-10.88,1.16-1.61,7.81-10.95,10.32-14.47.64-.89.96-1.11.97-2.26.53-5,1.58-16.73,1.87-18.63l.02-.03Z"/>
      </g>
      <g>
        <path class="cls-7" d="M448.92,335.89c-1.16,0-7.01-.38-8.12-7.86-.08-.57-.21-1.29-.34-2.06-.42-2.48-.73-4.35-.8-5.85-.09-1.92.52-3.82,1.71-5.33,1.42-1.8,3.18-3.83,4.88-5.79.5-.58,1-1.15,1.47-1.7.01-.5.03-1.04.04-1.59.06-2.06.12-4.31.18-5.57.04-.8.19-1.58.46-2.33.47-1.32,1.45-3.1,4.33-8.28,1.01-1.82,2.12-3.81,2.93-5.32.14-2.23.41-6.56.69-11.06.61-9.76,1.36-21.9,1.75-27.52.16-2.38,1.38-4.55,3.31-5.94,3.57-2.57,10.51-7.44,17.22-12.16,4.89-3.44,10.3-7.24,12.86-9.06,1.39-2.97,3.29-6.97,5.25-11.12,3.38-7.15,7.91-16.74,8.98-19.1.51-1.9,1.26-4.78,2.02-7.64,1.4-5.32,2.27-8.62,2.54-9.58.23-.8.58-1.55,1.04-2.24,1.28-1.92,3.33-3.21,5.61-3.51,1.15-.15,9.23-.76,37.6-2.82,7.4-.54,14.41-1.05,15.53-1.14.25-.03.5-.04.74-.05.04,0,.09,0,.13,0,4.27,0,7.79,3.35,8,7.61.2,4.06-2.7,7.59-6.65,8.28-5.25.96-15.86,2.86-25.93,4.67-6.64,1.19-13.84,2.48-18.5,3.32-.2.94-.41,1.91-.6,2.8-.48,2.22-.94,4.38-1.26,5.81-.12.52-.29,1.03-.51,1.52-.59,1.31-4.26,8.67-10.23,20.64-2.85,5.71-5.58,11.18-7.09,14.23-.03.06-.14.28-.14.28-.71,1.5-1.65,2.59-3.03,3.54,0,0-.19.14-.23.16-4.25,2.99-13.77,9.73-20.91,14.78-2.22,1.57-4.21,2.98-5.74,4.06l-2.37,34.02c0,.1-.02.21-.03.31-.05.45-.06.74-.07,1.08-.03,1.04-.08,2.99-1.33,5.2-.05.09-.11.19-.16.28-.84,1.35-6.32,10.25-6.32,10.25,0,0-.96,8.01-.96,8.07-.46,3.19-2.3,4.99-3,5.68-.06.07-.12.15-.19.22-.83.93-1.9,2.09-3,3.29-1.06,1.16-2.22,2.41-3.18,3.49-.06.42-.13.85-.18,1.21-.11.79-.22,1.54-.32,2.13l-.04.3c-.86,5.83-5.46,7.39-8.03,7.39Z"/>
        <path class="cls-23" d="M517.99,173.21c1.95-.26,53.69-3.95,52.94-3.94-11.4,2.1-48.89,8.74-49.71,8.97-.56,2.13-2.23,10.22-3.03,13.74-.92,2.04-13.25,26.62-17.2,34.62-.42.8-.14.49-.83.99-6.95,4.9-28.02,19.82-29.68,20.99-.13.1-.07.15-.1.38-.53,7.59-1.85,26.65-2.61,37.48-.22,2.02.03,2.43-.41,3.22-1.58,2.55-4.8,7.78-6.55,10.61-.67,1.15-.68.81-.82,2.09-.24,2.03-.89,7.46-1.03,8.67-.12.8-.68.99-1.25,1.73-2.14,2.4-5.83,6.29-7.7,8.51-.33,1.36-.65,4.06-.91,5.6-.19,1.16-.16,1.56-.39,0-.27-1.87-.98-5.44-1.06-7.11,2.15-2.73,5.4-6.3,7.61-8.96.27-.29.37-.47.37-.85.07-1.56.19-7.14.29-9.41.54-1.49,5.8-10.51,7.6-14.1.12-1.35,1.89-30.66,2.56-40.24,7.45-5.36,30.53-21.43,31.78-22.47,3.89-8.31,14.66-30.99,15.42-32.81,1.16-4.33,4.22-16.03,4.69-17.69v-.02Z"/>
      </g>
      <g>
        <path class="cls-7" d="M367.48,436.97c-.52,0-1.05-.05-1.57-.16-.85-.16-31.38-6.03-31.38-6.03-1.7-.28-3.18-.98-4.4-2.11-.9-.83-1.59-1.85-2.04-2.98-.38-.98-.47-1.68-.63-2.95-.05-.4-.12-.91-.2-1.51-.35-2.62-.89-6.7-1.42-10.74-.42-3.22-.91-6.93-1.25-9.48-6.42-4.94-17.05-13.08-23.07-17.69l-2.51-1.93c-1.67-.09-3.69-.16-5.54-.23-2.08-.08-3.89-.14-5.11-.22-1.03-.07-2.04-.33-2.97-.78-1.52-.74-2.5-1.64-3.15-2.24-.29-.26-.51-.47-.87-.75-.09-.07-.18-.14-.26-.22,0,0-23.1-19.68-26.62-22.68-11.28-1.4-31.89-3.94-48.68-6-16.5-2.03-25.86-3.19-26.49-3.27-4.26-.55-7.33-4.37-6.94-8.65.37-4.14,3.85-7.28,7.96-7.28.14,0,.27,0,.41.01,7.73.39,22.72.96,37.21,1.51q44.98,1.71,47.18,2.78c.52.25,1.01.56,1.47.92l27.18,21.49c2.99.35,7.45.87,12.14,1.41,14.32,1.66,20.47,2.38,21.51,2.54.35.06.7.13,1.04.24,1.5.45,4.2,1.26,6.89,2.07,1.52.46,3.22.97,4.64,1.4,1.29-.71,2.81-1.56,4.35-2.42,4.01-2.23,7.79-4.34,8.9-4.93,1.01-.54,2.13-.86,3.28-.92,1.99-.12,5.35-.22,8.9-.32,2.36-.07,4.74-.14,6.61-.21.4-.02.73-.02,1.01-.03.08,0,.15,0,.21,0,.98-.17,3.36-.6,6.26-1.12,5.5-.99,12.86-2.31,16.19-2.9.46-.08.94-.12,1.41-.12,3.92,0,7.27,2.84,7.9,6.71.33,2.02.37,6.96-6.36,9.22l-1.7.57c-2.45.8-5.73,1.92-8.93,3.01-7.32,2.5-10.22,3.47-11.57,3.77-.44.1-.88.16-1.32.18-1.85.1-4.56.16-7.44.22-2.46.05-5.94.12-7.78.23-1.34.75-2.89,1.62-4.5,2.53-3.57,2.01-7.26,4.08-9.79,5.44-1.17.63-2.48.96-3.8.96-.39,0-.79-.03-1.18-.09-1.32-.2-3.59-.57-6.11-1,.38.33.76.65,1.12.96,6.74,5.78,7.02,6.04,7.55,6.63.68.75,1.21,1.61,1.56,2.56.62,1.66.64,3.08.64,3.76,0,.06,0,.13,0,.21.01.11.02.22.03.33.15,2.15.34,5.91.55,9.88.11,2.19.25,4.78.37,6.98,2.34.78,4.99,1.66,7.69,2.55,4.22,1.4,8.55,2.84,11.99,3.99l3.66,1.22c5.36,1.8,6.11,6.5,5.71,8.99-.63,3.88-3.97,6.72-7.9,6.72Z"/>
        <path class="cls-23" d="M180.32,337.06c19.11.97,80.14,2.93,81.3,3.5,7.63,6.03,20.94,16.55,28.25,22.33.67.5.5.57,1.28.63,7.57.9,33.36,3.85,35.02,4.11,3.54,1.05,13.76,4.15,14.65,4.39.27,0,.32-.12.66-.28,3.54-1.95,13.73-7.65,15.5-8.6,3.17-.19,10.75-.35,15.34-.53.95-.04,1.31-.02,1.93-.08,1.41-.25,17.44-3.14,22.84-4.1.09-.02-.99.34-2.73.93-6.01,1.96-17.93,6.16-19.7,6.56-4.44.24-15.37.23-17.25.65-4.06,2.25-11.56,6.52-15.62,8.71-3.69-.55-15.72-2.68-17.75-2.98-3.11.05-11.41.3-12.6.32,5.07,4.86,25.12,21.78,25.81,22.53.21.57.07,1,.18,2.03.36,5.29,1.07,21.52,1.31,22.2,5.65,1.93,17.28,5.73,24.72,8.24,2.64.89,4.28,1.41,3.99,1.34-1.03-.2-27.8-5.35-31.45-6.05-.18-.04-.34-.03-.45-.13-.04-.11-.15-1.07-.36-2.64-.88-6.5-2.9-22.19-3.13-23.49-7.65-5.9-28.49-21.85-30.11-23.09-3.27-.28-10.31-.43-13.09-.61-.79-.38-1.14-.98-2.58-2.1-7.16-6.1-27.68-23.58-28.4-24.2-.15-.1-.17-.03-.44-.09-19.28-2.39-75.69-9.33-77.11-9.51h0Z"/>
      </g>
      <g>
        <path class="cls-7" d="M476.66,535.2c-1.93,0-3.85-.69-5.37-2.07-2.98-2.7-3.49-7.2-1.19-10.5l1.45-2.09c2.08-3,4.67-6.72,6.4-9.11.34-.47.72-.89,1.16-1.28.6-.53,2.58-2.18,6.26-5.24l1.02-.84c1.75-1.54,4.5-2.84,13.31-6.72,2.11-.93,4.25-1.87,6.11-2.72.74-5.55,1.76-13.33,1.88-14.37.03-.28.08-.56.14-.83.24-1.07.56-1.85.78-2.37.06-.15.13-.32.21-.54.03-.09.07-.18.1-.27.77-1.96,1.92-4.97,2.98-7.73-1.4,1.04-3.13,2.33-5.27,3.92-3.25,2.42-6.54,4.87-8.76,6.54-.37.29-.69.53-.99.75-.93,2.03-8.82,19.27-8.82,19.27-.71,1.57-2.61,5.72-7.76,5.72-2.54,0-4.93-1.21-6.43-3.25-1.41-1.92-1.9-4.36-1.34-6.65.08-.34.09-.37.66-2.11l3.76-11.53c2.76-8.48,3.58-11,3.72-11.39.39-1.1,1.01-2.1,1.82-2.93.77-.79,1.47-1.35,2.08-1.84.29-.24.62-.5,1.02-.85.04-.04,5.49-4.58,8.69-7.26,3.5-2.92,7.64-6.37,9.72-8.11,0,0,5.46-12.77,6.04-14.1.71-1.7,2.47-4.43,6.59-5.17,0,0,.35-.07.41-.08,1.25-.24,3.12-.6,5.11-.98,1.9-.36,4.36-.84,6.28-1.21.4-.61.83-1.27,1.28-1.94.79-1.22,1.64-2.51,2.51-3.79.42-.67.85-1.28,1.24-1.87.19-.28.38-.56.55-.81.69-2.5,8.45-30.67,9.59-34.78.15-.53.35-1.04.6-1.53,1.36-2.64,3.75-4.18,7.1-4.59.26-.03.45-.06.65-.1.09-.02.18-.04.27-.05,2.15-.4,4.82-.83,7.65-1.29,3.22-.52,6.52-1.06,9.06-1.54.84-.74,1.93-1.71,3.1-2.75,2.6-2.31,5.56-4.94,7.1-6.28.12-.11.24-.21.37-.31.62-.48,2.98-2.25,5.85-4.39,2.28-1.7,4.86-3.64,7.13-5.34-.51-1.55-1.06-3.23-1.51-4.61-1.15-3.48-2.24-6.77-2.77-8.58-.67-2.27-.3-4.71,1-6.68.92-1.38,15.22-21.74,33.83-48.22,8.45-12.02,16.43-23.37,16.93-24.1,1.51-2.2,3.99-3.48,6.6-3.48.42,0,.84.03,1.27.1,2.82.45,8.14,1.7,12.84,2.8,1.69.4,3.63.85,5.04,1.17,1.43-.64,3.33-1.53,4.43-2.05,1.97-.93,3.13-1.48,3.96-1.81.04-.02.08-.03.12-.05,1.74-.66,3.16-.73,4-.77.12,0,.25,0,.41-.03.15-.02.3-.04.45-.05,2.32-.17,6-.5,8.96-.76.14-.01.29-.03.43-.04,1.45-2.6,3.35-6.08,4.88-8.9,1.04-1.91,1.85-3.4,2.48-4.54-.46-2.4-1.07-5.78-1.65-9.07-.38-2.12-.85-4.77-1.17-6.5-1.68-1.91-4.03-4.48-5.45-6.04,0,0-1.18-1.29-1.22-1.34-2.45-2.63-2.95-6.44-1.25-9.57.24-.45.53-.87.85-1.26.54-.66,4.95-5.93,10.21-12.21,6.37-7.61,13.97-16.7,17.37-20.77,1.57-1.89,3.85-2.88,6.15-2.88,1.57,0,3.16.46,4.54,1.42,3.41,2.35,4.46,6.91,2.43,10.51-1.96,3.49-5.75,9.5-9.77,15.86-2.5,3.96-5.6,8.88-7.66,12.28,1.35,1.73,2.7,3.49,3.53,4.75.33.49.59,1.02.8,1.58.24.63,2.32,6.35,6.55,17.99l.42,1.16c1.37,3.7-.35,6.77-1.09,8.07-.19.33-.36.64-.49.92-.06.13-.12.26-.18.38l-1.52,2.96c-1.32,2.55-3.08,5.97-4.24,8.25.14.08.27.16.4.23.1.05.17.08.27.13l8.77,4.47c.83.26,2.81.71,4.04.99,1.82.42,3.54.81,4.92,1.23.17.05.33.11.5.17,1.42-.88,1.91-1.15,2.72-1.43.1-.04.21-.07.31-.1.76-.23,1.56-.35,2.35-.35,2.87,0,5.53,1.54,6.95,4.02,1.43,2.49,1.4,5.59-.05,8.06-.35.59-.68,1-.96,1.33-.37.43-.86,1-1.42,1.64-.61.7-1.3,1.49-1.9,2.18-.93,2.81-3.06,9.42-4.56,14.07-.95,2.96-1.82,5.66-2.39,7.41-.04.11-.08.23-.12.34-.06.17-.09.29-.12.38-.15.54-.42,1.53-1.07,2.68-.52.91-1.21,1.72-2.03,2.36-.34.27-3.33,2.48-16.84,12.47-4.83,3.57-12.23,9.04-12.23,9.04-.52,1.64-1.19,3.73-1.86,5.85-1.15,3.65-2.33,7.38-2.92,9.16-.57,1.72-1.71,3.2-3.23,4.19-1.58,1.03-3.94,1.94-9.79,4.11-2.36.87-4.79,1.77-6.27,2.4-1.09.63-14.73,8.55-17.1,9.92-1.59,1.04-7.95,5.4-13.58,9.26-4.97,3.41-9.9,6.78-12.25,8.36-1.37.92-2.92,1.36-4.46,1.36-2.32,0-4.61-1.01-6.19-2.92-2.62-3.19-2.38-7.84.54-10.75.19-.19.21-.21,8.4-7.74,1.34-1.23,2.79-2.57,4.25-3.9-.3-.1-.56-.19-.78-.27-.08-.01-.16-.02-.24-.03-4.44,2.36-10.71,5.54-17.3,8.88-9.04,4.58-22.53,11.43-25.47,13.38l-4.08,4.4c-3.12,3.37-6.55,7.07-7.06,7.62-.36.38-.75.73-1.18,1.03-1.82,1.31-3.55,1.59-4.29,1.71,0,0-.23.06-.34.08,0,0-11.12,2.46-12.64,2.79l-1.02,4.84c-1.59,7.53-3.65,17.29-4.74,22.41-.21,1-.62,1.95-1.19,2.8-.58.87-1.16,1.44-1.47,1.75l-.09.09c-.05.06-.09.1-.14.16-1.12,1.18-3.18,3.34-5.31,5.57-2.05,2.15-4.68,4.89-6.08,6.38-.49,1.31-1.1,2.93-1.73,4.63-1.42,3.8-3.58,9.54-3.85,10.35-.1.33-.21.59-.35.9-1.27,2.74-2.9,6.12-4.62,9.69-1.92,4-3.91,8.12-5.31,11.18-.24,1.28-.66,3.61-1.16,6.31-.92,5.04-2.07,11.31-2.64,14.35-.16.85-.45,1.67-.88,2.43-1.58,2.83-4.09,3.77-5.17,4.16-.19.07-.43.16-.74.3-.11.05-.22.1-.33.15-5.21,2.17-15.8,6.63-19.04,8.02-1.74,1.43-4.4,3.64-5.77,4.79-1.34,1.46-3.1,3.39-4.78,5.25l-3.09,3.4c-.67.73-.89.98-1.31,1.34-1.5,1.28-3.35,1.92-5.2,1.92ZM635.28,340.65c.69,0,1.37.09,2.04.26l3.17.84c4.39,1.16,11.49,3.02,15.58,4.11,2.89-1.33,7.81-3.61,12.03-5.56,3.32-1.54,6.52-3.02,8.78-4.06.48-1.51,3.77-11.88,3.77-11.88.11-.35.18-.56.23-.73.17-.56.41-1.34.88-2.25.62-1.18,1.52-2.19,2.63-2.93.45-.3,3.49-2.23,13.7-8.72,5.96-3.78,13.58-8.62,17.37-11.04,1.01-3.3,2.73-8.95,4.06-13.33-.81-.25-7.31-2.25-8.02-2.47-.59-.18-1.15-.42-1.69-.73-.83-.48-2.22-1.3-3.59-2.11-.2.09-.38.17-.56.25l-5.64,2.49c-.76.33-1.36.6-2.44.83l-.19.04c-3.95.91-10.38,2.44-16.55,3.89-9.41,2.22-15.22,3.59-16.54,3.87-.38.08-.77.13-1.16.16,0,0-4.62.28-5.21.32-2.22,3.37-5.87,9.18-8.1,12.73-5.64,8.97-5.84,9.25-6.75,10.14-3.26,3.17-9.26,9.06-14.58,14.28-3.38,3.31-5.98,5.86-7.77,7.62.24,2.36.58,5.36.89,8.02,9.05-3,10.96-3.61,11.64-3.79.65-.17,1.33-.25,2-.25Z"/>
        <path class="cls-23" d="M732.44,277.88c-.87-.24-2.51-1.04-3.4-1.39-2.54-.77-7.85-1.73-9.8-2.51-2.62-1.34-6.6-3.37-9.23-4.71-1.56-.72-3.27-2.27-5.28-2.08-.36-.03-.88-.05-.87-.5,0-1.05.57-4.58.71-5.94.64-1.38,4.64-9.1,7.07-13.83.69-1.54,1.52-2.53,1.35-2.98-.59-1.61-6.56-18.07-6.94-19.07-1.46-2.23-5.76-7.44-6.38-8.43,1.19-3.19,15.75-25.25,19.99-32.79-6.19,7.43-26.36,31.5-27.55,32.95-.11.2.04.21.28.51,1.47,1.62,6.1,6.67,8.03,8.95.44,1.7,2.42,13.49,3.41,18.45.11,1,.49,1.79.3,2.34-1.14,1.86-8.82,16.31-10.83,19.49-1.39.09-9.52.86-13.64,1.17-1.14.15-1.74.01-2.62.34-1.69.67-8.3,4-10.58,4.73-1.69-.17-15.29-3.64-19.91-4.38-1.35,1.97-49.18,69.93-50.69,72.21,1.18,4.01,5.68,17.05,5.89,18.47-4.23,3.24-15.87,11.89-17.36,13.04-2.87,2.51-10.78,9.57-11.77,10.42-4.7,1.05-13.72,2.32-18.94,3.29-1.46.32-2.19.19-2.37.55-2.39,8.67-9.44,34.26-9.9,35.89-.63,1.13-1.56,2.35-2.51,3.83-2.22,3.27-4.3,6.66-5.74,8.54-1.47.34-10.83,2.11-14.57,2.84-.93.2-1.01.1-1.16.49-.64,1.49-4.67,10.92-6.19,14.48-.32.74-.43,1.08-.66,1.47-.48.43-13.93,11.63-19.71,16.46-1.2,1.05-1.89,1.49-2.64,2.26-.2.56-4.52,13.85-6.7,20.53-.71,2.18-1.19,3.64-1.21,3.72-.03.09.49-1.06,1.33-2.9,2.67-5.83,8.42-18.4,8.78-19.19.71-.7,1.39-1.05,2.56-1.98,5.77-4.36,18.93-14.03,19.74-14.82,1.81-2.55,6.53-9.18,7.61-10.71.11-.14.2-.23.37-.28.28-.08,1.05-.05,2.04-.05.98,0,1.78-.02,1.99.05.24.07.11.3.09.52-.42,2.8-2.24,13.18-2.93,17.4-.44,1.11-3.87,10.16-5.53,14.4-.34.96-.58,1.34-.74,2.03-.17,1.42-1.86,14.34-2.48,18.78-5.58,2.91-19.92,8.62-21.53,10.15-1.89,1.57-6.47,5.37-7.19,6.01-2.11,2.91-5.6,7.97-7.77,11.08.06-.05.53-.58,1.25-1.36,2.37-2.6,5.58-6.15,7.6-8.34,1.34-1.13,5.32-4.43,7.1-5.88,1.17-.54,14.86-6.3,20.17-8.51,1.44-.68,2.09-.7,2.33-1.12.98-5.25,3.71-20.19,3.98-21.62,2.57-5.7,7.5-15.68,10.35-21.82.32-1.01,4.7-12.61,6.25-16.79.84-.96,9.7-10.18,12.52-13.17.4-.44.65-.62.89-.98,1.62-7.59,5.35-25.32,6.54-30.94.05-.26.11-.49.15-.73.19-.77-.11-.54,1.11-.83,3.66-.8,12.86-2.84,16.7-3.69.79-.23,1.21-.13,1.69-.48.8-.86,8.82-9.53,11.49-12.4,2-2.29,34.9-18.21,46.48-24.54.95-.04,2.83.17,3.95.37,1.16.39,8,2.73,11.7,3.99,1.23.48,2.11.59,2.39.9-.8.77-22.01,20.23-22.26,20.48,5.28-3.56,23.63-16.2,26.1-17.8,4.46-2.58,16.32-9.47,17.69-10.26,3.84-1.69,13.59-4.94,15.3-6.06,1.06-3.21,4.07-12.85,5.3-16.64.31-.97.16-.66.68-1.08.56-.42,1.14-.84,1.73-1.28,6.92-5.12,28.26-20.89,28.8-21.31.29-.51.26-.89.66-1.94,1.83-5.65,6.89-21.46,7.47-23.03,1.05-1.27,3.4-3.91,4.29-4.96.08-.1.14-.17.17-.21.03-.04.02-.06-.02-.05-.26.09-3.61,2.24-4.38,2.66-.11.05-.21.08-.31.09h-.1ZM722.24,303.85c-1.57,1.06-32.39,20.58-33.39,21.25-.2.38-.25.71-.58,1.69-1.3,4.08-4.62,14.57-4.82,15.15-.44.4-.92.44-1.66.84-5.71,2.63-24.61,11.4-24.96,11.53-.53-.04-.89-.26-1.88-.47-4.97-1.33-16.74-4.42-19.67-5.19-1.16.3-19.27,6.35-20.43,6.71-.06.01-.08,0-.1-.04-.03-.07-.04-.27-.07-.59-.28-3.59-2.02-17.39-2.23-21.15,1.3-1.21,18.64-18.29,25.05-24.52.78-.76,14.67-23.58,16.18-24.92,1.06-.06,6.85-.42,9-.55,2.37-.5,24.09-5.68,32.86-7.71.89-.21.34,0,1.81-.65,1.64-.73,3.33-1.47,4.99-2.21,1.29-.59,3.18-1.39,4.14-1.83.19-.08.28-.11.46-.04,1.47.89,5.28,3.15,6.88,4.07,1.6.49,11.56,3.57,13.44,4.13.71.22,1.16,1.4,1.62,1.9.11.17.14.27.14.35-.44,1.47-6.31,20.78-6.77,22.2v.02Z"/>
      </g>
    </g>
  </g>
</svg>
